Walking04_kinetics.mot
version=1
nRows=16
nColumns=19
inDegrees=yes
endheader
time	1_ground_force_vx	1_ground_force_vy	1_ground_force_vz	1_ground_force_px	1_ground_force_py	1_ground_force_pz	2_ground_force_vx	2_ground_force_vy	2_ground_force_vz	2_ground_force_px	2_ground_force_py	2_ground_force_pz	1_ground_torque_x	1_ground_torque_y	1_ground_torque_z	2_ground_torque_x	2_ground_torque_y	2_ground_torque_z
  0.73500000	-23.68558289	456.45016301	 21.30488964	  0.46784548	 -0.00021938	 -0.18004701	  0.00000000	  0.00000000	  0.00000000	 -0.30181907	  0.00246885	  0.10097818	  0.00197783	 -1.52797617	 -0.00097271	  0.00000000	  0.00000000	  0.00000000
  0.73600000	-23.21904115	455.55033814	 21.08930331	  0.46841514	 -0.00021866	 -0.18002257	  0.00000000	  0.00000000	  0.00000000	 -0.30181907	  0.00246885	  0.10097818	  0.00199946	 -1.54468500	 -0.00098335	  0.00000000	  0.00000000	  0.00000000
  0.73700000	-22.73610847	454.70250826	 20.88455551	  0.46896134	 -0.00021797	 -0.17999942	  0.00000000	  0.00000000	  0.00000000	 -0.30181907	  0.00246885	  0.10097818	  0.00202256	 -1.56253352	 -0.00099471	  0.00000000	  0.00000000	  0.00000000
  0.73800000	-22.23835443	453.91808687	 20.69401392	  0.46947825	 -0.00021731	 -0.17997973	  0.00000000	  0.00000000	  0.00000000	 -0.30181907	  0.00246885	  0.10097818	  0.00204726	 -1.58161276	 -0.00100686	  0.00000000	  0.00000000	  0.00000000
  0.73900000	-21.72846344	453.20632470	 20.52152260	  0.46996254	 -0.00021670	 -0.17996631	  0.00000000	  0.00000000	  0.00000000	 -0.30181907	  0.00246885	  0.10097818	  0.00207326	 -1.60169875	 -0.00101965	  0.00000000	  0.00000000	  0.00000000
  0.74000000	-21.21030461	452.57378233	 20.37115228	  0.47041359	 -0.00021611	 -0.17996202	  0.00000000	  0.00000000	  0.00000000	 -0.30181907	  0.00246885	  0.10097818	  0.00209967	 -1.62210440	 -0.00103264	  0.00000000	  0.00000000	  0.00000000
  0.74100000	-20.68863115	452.02424262	 20.24663651	  0.47083260	 -0.00021557	 -0.17996835	  0.00000000	  0.00000000	  0.00000000	 -0.30181907	  0.00246885	  0.10097818	  0.00212495	 -1.64163429	 -0.00104507	  0.00000000	  0.00000000	  0.00000000
  0.74200000	-20.16838758	451.55931319	 20.15101111	  0.47122115	 -0.00021506	 -0.17998469	  0.00000000	  0.00000000	  0.00000000	 -0.30181907	  0.00246885	  0.10097818	  0.00214705	 -1.65870864	 -0.00105594	  0.00000000	  0.00000000	  0.00000000
  0.74300000	-19.65368254	451.17964564	 20.08677309	  0.47158021	 -0.00021457	 -0.18000919	  0.00000000	  0.00000000	  0.00000000	 -0.30181907	  0.00246885	  0.10097818	  0.00216385	 -1.67168568	 -0.00106420	  0.00000000	  0.00000000	  0.00000000
  0.74400000	-19.14680003	450.88547179	 20.05614184	  0.47190984	 -0.00021413	 -0.18004026	  0.00000000	  0.00000000	  0.00000000	 -0.30181907	  0.00246885	  0.10097818	  0.00217366	 -1.67926039	 -0.00106902	  0.00000000	  0.00000000	  0.00000000
  0.74500000	-18.64771243	450.67482510	 20.06080586	  0.47221043	 -0.00021372	 -0.18007672	  0.00000000	  0.00000000	  0.00000000	 -0.30181907	  0.00246885	  0.10097818	  0.00217562	 -1.68077750	 -0.00106999	  0.00000000	  0.00000000	  0.00000000
  0.74600000	-18.15415221	450.54001661	 20.10126109	  0.47248479	 -0.00021334	 -0.18011675	  0.00000000	  0.00000000	  0.00000000	 -0.30181907	  0.00246885	  0.10097818	  0.00216990	 -1.67636266	 -0.00106718	  0.00000000	  0.00000000	  0.00000000
  0.74700000	-17.66196723	450.46571104	 20.17669184	  0.47273953	 -0.00021298	 -0.18015712	  0.00000000	  0.00000000	  0.00000000	 -0.30181907	  0.00246885	  0.10097818	  0.00215744	 -1.66673515	 -0.00106105	  0.00000000	  0.00000000	  0.00000000
  0.74800000	-17.16556472	450.43093602	 20.28600400	  0.47298449	 -0.00021264	 -0.18019374	  0.00000000	  0.00000000	  0.00000000	 -0.30181907	  0.00246885	  0.10097818	  0.00213923	 -1.65266796	 -0.00105209	  0.00000000	  0.00000000	  0.00000000
  0.74900000	-16.65845251	450.41347198	 20.42933166	  0.47323075	 -0.00021230	 -0.18022299	  0.00000000	  0.00000000	  0.00000000	 -0.30181907	  0.00246885	  0.10097818	  0.00211565	 -1.63444787	 -0.00104050	  0.00000000	  0.00000000	  0.00000000
  0.75000000	-16.13396143	450.39405289	 20.60899061	  0.47348828	 -0.00021196	 -0.18024255	  0.00000000	  0.00000000	  0.00000000	 -0.30181907	  0.00246885	  0.10097818	  0.00208633	 -1.61179468	 -0.00102607	  0.00000000	  0.00000000	  0.00000000
